<svg width="339" height="625" viewBox="0 0 339 625" fill="none" xmlns="http://www.w3.org/2000/svg">
<path d="M304.296 313.746C304.218 312.597 303.867 311.484 303.272 310.498C302.677 309.512 301.856 308.682 300.876 308.078C270.644 288.049 247.8 243.646 245.514 206.045C245.514 203.91 245.381 201.737 245.306 199.545C243.549 145.789 235.632 80.5069 228.527 63.2369C215.414 31.1155 170.973 28.1301 170.973 28.1301C111.964 23.8976 101.421 69.2455 95.3934 110.531C91.6144 136.209 77.4243 227.944 77.4243 227.944L88.27 232.158C94.5016 250.901 104.815 268.028 118.466 282.303C132.118 296.579 148.767 307.647 167.213 314.71C178.078 318.81 187.298 320.378 191.606 316.92C208.849 334.471 230.185 347.457 253.695 354.71C263.161 357.911 273.16 359.239 283.134 358.622C289.577 358.017 296.36 355.901 300.139 350.686C301.806 348.429 302.796 345.744 302.995 342.945C303.194 340.146 302.593 337.348 301.262 334.878C299.931 332.408 297.924 330.368 295.477 328.995C293.03 327.622 290.243 326.973 287.442 327.124C289.822 319.774 304.542 321.909 304.296 313.746Z" fill="#263238"/>
<path d="M178.815 44.8143L175.036 41.2999L135.148 57.3795C132.364 57.5297 129.737 58.7198 127.788 60.7143C125.839 62.7088 124.71 65.3623 124.624 68.1496L124.983 198.128C124.983 206.933 126.684 214.567 132.012 221.595L137.68 229.002C150.453 245.857 176.717 244.477 186.807 225.885C187.415 224.834 187.885 223.71 188.205 222.54C188.461 221.582 188.663 220.611 188.81 219.63C189.982 209.163 190.057 200.093 190.057 200.093C190.775 188.624 191.002 183.9 191.002 184.013C191.002 184.127 215.433 181.198 222.046 149.851C225.334 134.244 224.711 112.798 223.785 91.6738C222.575 62.4433 202.263 44.7954 178.815 44.8143Z" fill="#FFBE9D"/>
<path d="M170.633 109.189C170.589 110.244 170.137 111.239 169.371 111.966C168.606 112.692 167.588 113.093 166.533 113.082C166.022 113.097 165.513 113.011 165.035 112.829C164.557 112.648 164.119 112.373 163.747 112.022C163.375 111.671 163.076 111.251 162.867 110.784C162.657 110.317 162.542 109.814 162.527 109.303C162.572 108.245 163.027 107.247 163.796 106.52C164.565 105.793 165.588 105.395 166.646 105.41C167.16 105.382 167.674 105.459 168.157 105.636C168.639 105.813 169.081 106.087 169.454 106.441C169.827 106.795 170.124 107.221 170.327 107.694C170.53 108.166 170.634 108.675 170.633 109.189Z" fill="#263238"/>
<path d="M211.881 110.285C211.841 111.345 211.388 112.346 210.617 113.074C209.847 113.802 208.822 114.198 207.762 114.178C207.251 114.193 206.741 114.107 206.263 113.925C205.785 113.743 205.348 113.469 204.976 113.118C204.604 112.767 204.305 112.347 204.095 111.88C203.886 111.413 203.771 110.91 203.756 110.399C203.8 109.341 204.255 108.343 205.025 107.616C205.794 106.889 206.817 106.491 207.875 106.506C208.387 106.489 208.897 106.573 209.376 106.754C209.856 106.934 210.294 107.209 210.667 107.56C211.039 107.911 211.338 108.333 211.547 108.801C211.755 109.269 211.869 109.773 211.881 110.285Z" fill="#263238"/>
<path d="M219.684 100.025C219.155 100.536 216.208 98.1359 211.843 97.8902C207.478 97.6446 204.172 99.7797 203.718 99.1562C203.265 98.5327 204.058 97.9658 205.608 97.0211C207.558 95.8099 209.834 95.2293 212.126 95.3583C214.396 95.4714 216.571 96.298 218.343 97.7202C219.533 98.8161 219.949 99.7986 219.684 100.025Z" fill="#263238"/>
<path d="M175.414 100.479C174.828 100.913 172.145 98.2115 167.856 97.5501C163.566 96.8888 160.052 98.5705 159.655 97.9658C159.466 97.7013 160.109 96.8321 161.658 96.0763C163.721 95.0722 166.044 94.729 168.309 95.0938C170.559 95.4352 172.642 96.4804 174.261 98.0792C175.395 99.2696 175.697 100.271 175.414 100.479Z" fill="#263238"/>
<path d="M190.662 132.241C192.994 131.634 195.394 131.323 197.804 131.315C198.919 131.315 199.996 131.089 200.223 130.333C200.374 129.184 200.169 128.017 199.637 126.988L196.765 118.353C192.797 106.034 189.982 95.9441 190.473 95.7929C190.964 95.6418 194.592 105.486 198.579 117.787C199.524 120.835 200.431 123.732 201.3 126.478C201.928 127.859 202.055 129.416 201.659 130.881C201.479 131.262 201.216 131.597 200.889 131.862C200.562 132.127 200.179 132.315 199.769 132.411C199.15 132.552 198.514 132.609 197.88 132.581C195.469 132.772 193.044 132.658 190.662 132.241Z" fill="#263238"/>
<path d="M191.077 184.013C176.179 183.492 161.717 178.848 149.301 170.598C149.301 170.598 158.805 193.026 190.643 191.704L191.077 184.013Z" fill="#EB996E"/>
<path d="M188.281 142.577C187.504 141.491 186.463 140.621 185.256 140.049C184.049 139.477 182.717 139.222 181.384 139.308C180.415 139.346 179.463 139.581 178.587 139.996C177.71 140.412 176.926 141 176.283 141.726C175.669 142.426 175.283 143.296 175.175 144.221C175.067 145.146 175.242 146.081 175.678 146.904C176.343 147.724 177.237 148.328 178.247 148.638C179.257 148.947 180.336 148.949 181.347 148.642C183.418 148.002 185.344 146.962 187.015 145.581C187.533 145.264 187.983 144.846 188.338 144.353C188.499 144.113 188.586 143.83 188.586 143.54C188.586 143.251 188.499 142.968 188.338 142.728" fill="#EB996E"/>
<path d="M177.7 134.603C178.418 134.603 178.191 139.346 182.065 142.898C185.938 146.45 191.021 146.205 191.021 146.866C191.021 147.168 189.849 147.735 187.714 147.678C184.914 147.595 182.234 146.516 180.156 144.636C178.185 142.844 176.98 140.36 176.793 137.702C176.755 135.718 177.341 134.565 177.7 134.603Z" fill="#263238"/>
<path d="M179.589 83.4734C178.985 84.5693 174.752 83.36 169.594 83.19C164.436 83.0199 160.146 83.7757 159.617 82.6231C159.391 82.0752 160.279 81.0738 162.111 80.2046C164.529 79.1479 167.155 78.6566 169.791 78.7679C172.427 78.8792 175.002 79.5903 177.322 80.847C179.06 81.8673 179.854 82.9443 179.589 83.4734Z" fill="#263238"/>
<path d="M219.061 81.2816C218.249 82.2263 215.282 81.0549 211.673 80.8281C208.064 80.6014 204.965 81.1493 204.323 80.0723C204.04 79.5622 204.569 78.5985 205.948 77.7293C207.802 76.6968 209.921 76.2372 212.037 76.4088C214.152 76.5803 216.169 77.3752 217.833 78.693C219.061 79.77 219.42 80.8092 219.061 81.2816Z" fill="#263238"/>
<path d="M125.512 123.682C125.512 123.682 147.865 130.635 160.506 75.4808C164.832 56.5859 182.31 41.3565 182.31 41.3565L175.225 39.2214C175.225 39.2214 131.162 51.6354 130.425 52.1834C129.688 52.7313 119.296 74.9895 119.296 74.9895L125.512 123.682Z" fill="#263238"/>
<path d="M131.029 121.566C131.143 119.223 128.686 113.535 126.381 113.044C120.222 111.778 109.017 111.702 108.11 127.461C106.901 149.02 128.781 145.808 128.894 145.184C129.008 144.561 130.633 129.69 131.029 121.566Z" fill="#FFBE9D"/>
<path d="M122.734 136.644C122.734 136.644 122.338 136.889 121.695 137.135C121.243 137.306 120.761 137.385 120.278 137.369C119.795 137.353 119.32 137.241 118.88 137.041C116.65 136.077 114.931 132.355 115.101 128.462C115.151 126.615 115.609 124.802 116.442 123.153C116.681 122.491 117.078 121.897 117.598 121.423C118.118 120.948 118.746 120.608 119.428 120.432C119.868 120.333 120.329 120.395 120.728 120.606C121.126 120.818 121.436 121.165 121.601 121.584C121.846 122.208 121.695 122.624 121.79 122.661C121.884 122.699 122.281 122.34 122.168 121.433C122.07 120.895 121.798 120.404 121.393 120.035C120.82 119.553 120.08 119.315 119.333 119.374C118.439 119.496 117.592 119.847 116.873 120.393C116.155 120.94 115.59 121.662 115.233 122.491C114.207 124.305 113.643 126.342 113.589 128.424C113.476 132.77 115.479 136.965 118.54 138.042C119.108 138.24 119.713 138.309 120.311 138.244C120.91 138.178 121.486 137.98 121.998 137.664C122.659 137.173 122.904 136.682 122.734 136.644Z" fill="#EB996E"/>
<path d="M140.666 113.082C141.754 112.919 142.832 112.698 143.897 112.42C146.762 111.551 149.387 110.031 151.568 107.98C153.083 106.574 154.427 104.995 155.574 103.275C156.87 101.295 157.959 99.1865 158.824 96.9833C160.686 91.8599 162.238 86.6292 163.472 81.3194C164.859 76.0247 166.511 70.8031 168.422 65.6744C170.01 61.4783 171.905 57.4049 174.091 53.4871C175.552 50.853 177.2 48.3272 179.023 45.9292C179.646 45.06 180.213 44.4554 180.572 44.0397C180.741 43.8143 180.93 43.6055 181.139 43.4161C180.999 43.6652 180.834 43.8995 180.647 44.1152C180.326 44.5876 179.797 45.2111 179.193 46.0047C177.459 48.4289 175.869 50.9525 174.431 53.5627C172.327 57.4854 170.502 61.5516 168.97 65.7311C167.194 70.4359 165.569 75.7265 164.058 81.3383C162.833 86.6752 161.261 91.9265 159.353 97.0589C158.457 99.2833 157.336 101.411 156.008 103.408C154.827 105.14 153.445 106.726 151.889 108.131C149.642 110.199 146.935 111.702 143.991 112.515C142.915 112.858 141.795 113.048 140.666 113.082Z" fill="#263238"/>
<path d="M111.227 205.025C111.104 204.683 111.021 204.328 110.982 203.966L110.453 200.905C109.98 198.147 109.338 194.217 108.563 189.209H109.092C109.187 190.003 109.319 190.872 109.432 191.76C109.565 192.044 109.735 192.384 109.886 192.724L109.338 192.913C103.989 174.341 101.224 155.12 101.119 135.794C101.119 127.914 101.119 119.544 103.254 111.23C104.107 107.811 105.423 104.524 107.165 101.461C108.878 98.5059 110.871 95.7219 113.117 93.1476C117.501 88.0838 122.224 83.7002 126.532 79.411L149.679 56.7371L165.324 41.451L169.613 37.332L170.747 36.2738L171.162 35.9337C171.162 35.9337 171.068 36.0849 170.822 36.3494L169.764 37.4642L165.607 41.7156C161.828 45.4946 156.632 50.7096 150.17 57.2283L127.175 80.129C122.886 84.4748 118.162 88.8585 113.854 93.8656C109.259 98.898 105.947 104.965 104.199 111.551C102.139 119.733 102.158 128.065 102.063 135.907C102.146 155.16 104.782 174.316 109.905 192.875L109.357 193.083L108.922 192.1C108.809 191.193 108.696 190.324 108.601 189.55H109.111C109.848 194.557 110.415 198.506 110.812 201.283C110.982 202.587 111.114 203.607 111.227 204.363C111.236 204.584 111.236 204.804 111.227 205.025Z" fill="#455A64"/>
<path d="M94.2598 105.392C94.3409 105.072 94.4682 104.767 94.6377 104.485C94.9778 103.804 95.3935 102.973 95.8847 101.953C96.9806 99.7608 98.7001 96.6621 100.967 92.902C103.235 89.1419 106.088 84.7583 109.489 80.0534C112.89 75.3486 116.915 70.3792 121.374 65.372C125.833 60.3649 130.425 55.9246 134.695 52.0133C138.965 48.1021 143.047 44.7955 146.561 42.1691C150.075 39.5427 152.966 37.4831 155.045 36.1605L157.426 34.63C157.696 34.4497 157.98 34.2917 158.276 34.1576C158.276 34.1576 158.049 34.4032 157.52 34.8L155.253 36.4628C153.25 37.8799 150.416 40.015 146.996 42.717C143.576 45.419 139.57 48.7823 135.318 52.6746C131.067 56.567 126.57 61.0829 122.092 66.0334C117.614 70.9839 113.665 75.9721 110.207 80.5825C106.749 85.1928 103.858 89.5576 101.534 93.261C99.2103 96.9644 97.3963 100.006 96.2059 102.142L94.7888 104.579C94.6405 104.867 94.4632 105.139 94.2598 105.392Z" fill="#455A64"/>
<path d="M118.937 196.862C119.692 195.766 124.718 186.073 124.718 186.073L153.136 210.599C153.136 210.599 181.063 233.972 181.063 232.46L185.522 209.975L191.002 189.493L201.243 204.987C201.243 204.987 233.364 268.096 233.364 268.852C233.364 269.608 253.298 334.984 253.298 334.984L249.009 361.437L248.499 455.25L188.47 452.737L176.623 433.842L156.349 313.519L118.937 196.862Z" fill="white"/>
<path d="M186.202 435.07H252.429L271.948 535.686H139.249L186.202 435.07Z" fill="#263238"/>
<path d="M108.072 212.488L69.4128 226.999L105.124 386.038C105.124 386.038 103.027 429.005 95.4312 450.904C87.8354 472.804 69.9986 535.686 69.9986 535.686H188.772C188.772 535.686 193.817 449.374 191.814 418.537C189.811 387.701 190.643 329.58 178.833 299.254C167.024 268.927 119.692 194.406 119.692 194.406L108.072 212.488Z" fill="#DDBAFF"/>
<path d="M192.816 191.307L210.332 205.78L258.438 212.942C258.438 212.942 281.206 295.418 276.993 327.842C272.779 360.265 278.656 416.402 278.656 416.402L299.742 535.686H253.45C253.45 535.686 240.223 396.185 239.449 397.866C238.674 399.548 236.123 329.637 231.078 306.963C226.033 284.289 200.563 213.017 200.563 213.017L192.816 191.307Z" fill="#DDBAFF"/>
<path d="M319.11 396.6C319.11 396.6 338.496 387.758 338.496 370.488C338.496 353.218 326.686 328.786 324.173 319.471C321.66 310.156 264.352 211.638 258.457 212.904L252.562 214.17L282.888 347.285L241.603 357.393L259.213 408.07L319.11 396.6Z" fill="#DDBAFF"/>
<path d="M260.006 353.577L268.509 326.066L269.964 307.322L289.974 294.095C289.974 294.095 295.34 294.719 293.753 298.876C292.166 303.033 283.984 310.515 283.984 310.515L279.204 323.874L286.969 310.307L298.306 304.639L309.549 305.47C309.549 305.47 311.627 310.458 306.431 310.666H300.763L292.222 317.544L286.894 330.43L294.924 317.96L306.79 313.746L314.348 315.636C314.348 315.636 316.427 318.961 312.685 319.415C308.944 319.868 306.45 319.83 306.45 319.83L299.591 323.817L293.545 336.477L304.164 327.728L317.882 326.084C317.882 326.084 320.187 329.391 316.634 330.638C313.017 332.123 309.479 333.795 306.034 335.645L298.325 344.998L260.006 353.577Z" fill="#FFBE9D"/>
<path d="M192.287 435.07C192.192 434.872 192.122 434.663 192.079 434.447C191.966 433.993 191.796 433.37 191.607 432.557C191.172 430.876 190.586 428.495 189.717 425.453C188.187 419.199 185.938 410.337 183.255 399.227C180.572 388.117 177.228 375.003 173.486 360.417C171.597 353.123 169.594 345.471 167.402 337.554C166.325 333.605 165.191 329.599 163.963 325.555C163.359 323.534 162.678 321.512 162.074 319.471C161.364 317.454 160.538 315.479 159.599 313.557C152.513 299.329 145.276 285.933 138.814 273.575C132.352 261.218 126.192 249.995 120.977 240.283L120.845 240.018L121.053 239.829C122.376 238.639 123.679 237.524 124.983 236.466C125.625 235.926 126.3 235.428 127.005 234.973L127.307 234.803H127.496C127.496 234.803 127.496 234.803 127.383 234.935C127.351 235.018 127.354 235.11 127.389 235.191C127.424 235.272 127.49 235.336 127.572 235.37H127.043H125.871C122.735 235.37 119.787 235.37 117.066 235.37H116.858V235.181C114.1 228.057 111.927 222.408 110.415 218.478L108.733 214.056L108.318 212.904L108.204 212.507C108.204 212.507 108.204 212.62 108.393 212.866L108.885 214L110.774 218.364C112.342 222.276 114.553 227.812 117.482 234.973L117.198 234.784C119.938 234.784 122.867 234.633 126.022 234.633H127.213C127.439 234.616 127.666 234.616 127.893 234.633H128.006C128.055 234.681 128.089 234.742 128.106 234.809C128.123 234.875 128.121 234.945 128.101 235.011C127.987 235.219 128.006 235.143 127.968 235.181H127.798H127.704C127.624 235.218 127.549 235.262 127.477 235.313C126.814 235.753 126.182 236.239 125.588 236.768C124.322 237.826 123.018 238.941 121.809 240.131V239.678C127.043 249.371 133.146 260.595 139.797 272.895C146.448 285.196 153.628 298.611 160.732 312.877C161.691 314.834 162.53 316.846 163.245 318.904C163.907 320.964 164.587 322.986 165.135 325.026C166.394 329.095 167.541 333.107 168.574 337.062C170.747 344.979 172.712 352.632 174.582 359.944C178.361 374.55 181.498 387.739 184.162 398.83L190.322 425.113C191.002 428.174 191.55 430.574 191.928 432.274C192.079 433.049 192.211 433.672 192.306 434.164C192.35 434.465 192.343 434.771 192.287 435.07Z" fill="#263238"/>
<path d="M253.45 341.522C253.4 341.032 253.4 340.538 253.45 340.048C253.45 338.971 253.582 337.573 253.695 335.815C253.695 334.889 253.809 333.926 253.884 332.754V329.127C253.884 326.5 253.884 323.458 253.695 320.265C252.712 303.161 249.354 286.277 243.719 270.099C241.423 263.336 238.722 256.717 235.632 250.278C232.877 244.033 229.754 237.957 226.279 232.082C223.199 226.716 220.365 222.049 217.984 218.194L212.316 209.181C211.692 208.199 211.201 207.292 210.804 206.782C210.625 206.504 210.467 206.214 210.332 205.913C210.564 206.15 210.773 206.409 210.955 206.687L212.58 209.011C213.978 211.052 215.981 214.056 218.437 217.873C220.894 221.69 223.804 226.338 226.94 231.685C230.467 237.56 233.623 243.65 236.388 249.919C239.539 256.414 242.272 263.104 244.569 269.948C250.247 286.203 253.532 303.197 254.319 320.397C254.527 323.704 254.413 326.689 254.319 329.297C254.319 330.6 254.319 331.828 254.225 332.943C254.13 334.058 254.036 335.078 253.96 336.004C253.79 337.761 253.639 339.179 253.544 340.237C253.534 340.666 253.503 341.095 253.45 341.522Z" fill="#263238"/>
<path d="M320.546 395.863C320.16 396.009 319.761 396.117 319.355 396.185L315.897 396.978L302.841 399.831L257.191 409.525L256.794 409.619L256.662 409.222C252.883 397.885 248.613 385.49 244.21 372.472L239.637 358.924L239.448 358.414L239.978 358.281L274.31 350.213L289.104 346.756L295.774 345.206C297.824 344.64 299.926 344.285 302.047 344.148C305.695 344.022 309.321 344.76 312.629 346.302C315.11 347.426 317.404 348.923 319.431 350.742C320.699 351.879 321.846 353.146 322.851 354.521C323.134 354.975 323.38 355.334 323.569 355.617C323.758 355.901 323.814 356.014 323.796 356.014C322.446 354.182 320.9 352.503 319.185 351.007C317.154 349.262 314.874 347.829 312.421 346.756C309.157 345.348 305.617 344.702 302.066 344.866C299.998 345.021 297.953 345.395 295.963 345.981L289.293 347.587L274.517 351.139C264.069 353.614 252.486 356.373 240.204 359.321L240.544 358.678L245.136 372.226C249.52 385.263 253.714 397.677 257.531 409.014L257.002 408.712L302.728 399.378L315.841 396.77L319.317 396.109C319.721 395.999 320.131 395.917 320.546 395.863Z" fill="#263238"/>
<path d="M97.3964 461.939L160.638 467.759L149.754 487.107L83.1497 480.588L97.3964 461.939Z" fill="#DDBAFF"/>
<path d="M97.3964 461.901C97.3964 461.901 97.3964 462.052 97.1697 462.279L96.4706 463.262L93.7119 467.041L83.3953 480.796L83.1685 480.267L147.468 486.465L149.811 486.691L149.339 486.937L160.222 467.57L160.581 468.269L115.347 463.791L102.12 462.449L98.5679 462.052C98.1474 462.027 97.73 461.964 97.3209 461.864H98.5112L102.007 462.109L115.233 463.186L160.694 467.286H161.413L161.053 467.929L150.208 487.296L150.038 487.561H149.717L147.374 487.334L83.1307 480.891H82.5261L82.8851 480.418L93.5419 466.776L96.4139 463.148C96.7172 462.714 97.0452 462.298 97.3964 461.901Z" fill="#263238"/>
<path d="M267.64 468.439L277.522 487.107L298.76 482.761L287.498 465.567L267.64 468.439Z" fill="#DDBAFF"/>
<path d="M267.64 468.439C268.066 468.314 268.502 468.226 268.944 468.174L272.912 467.494C276.35 466.908 281.358 466.077 287.442 465.151H287.706L287.857 465.378C291.145 470.366 295.038 476.243 299.194 482.535L299.591 483.139L298.873 483.29L297.815 483.498L277.616 487.561H277.314L277.163 487.277C274.178 481.609 271.778 476.791 270.134 473.503C269.378 471.972 268.755 470.706 268.245 469.724C268.017 469.311 267.821 468.881 267.659 468.439C267.659 468.439 267.98 468.949 268.49 469.837L270.625 473.616C272.515 476.866 274.971 481.401 277.919 486.843L277.446 486.635L297.626 482.44L298.684 482.232L298.382 482.969C294.263 476.658 290.427 470.763 287.177 465.737L287.574 465.926C281.698 466.738 276.804 467.324 273.289 467.815L269.189 468.288C268.207 468.401 267.678 468.458 267.64 468.439Z" fill="#263238"/>
<g opacity="0.3">
<path d="M90.8586 481.363L88.2322 487.107L153.93 493.135L158.824 470.971L149.754 487.107L90.8586 481.363Z" fill="black"/>
</g>
<g opacity="0.3">
<path d="M104.406 396.109C104.406 396.109 114.723 417.725 128.12 424.055C146.391 432.671 192.155 427.04 192.155 427.04L192.287 413.908L139.249 416.931L104.406 396.109Z" fill="black"/>
</g>
<path d="M71.8881 225.998C71.8881 225.998 53.3522 227.264 52.9931 275.711C52.6341 324.157 109.432 405.443 119.125 413.455C128.819 421.466 139.91 426.832 169.084 422.505C205.702 417.082 231.172 412.189 231.172 412.189L226.109 367.956L160.694 365.008L107.656 255.946C107.656 255.946 89.9705 223.825 71.8881 225.998Z" fill="#DDBAFF"/>
<g opacity="0.3">
<path d="M241.943 386.529C234.763 383.544 226.827 383.487 218.985 383.468L188.073 383.374C181.405 383.075 174.725 383.628 168.196 385.018C161.609 386.45 155.817 390.343 152.003 395.901L135.848 409.26C156.532 414.27 178.241 413.001 198.201 405.613C203.062 403.463 208.126 401.805 213.317 400.663C227.28 398.471 241.414 406.577 255.301 403.988C255.32 396.204 249.104 389.534 241.943 386.529Z" fill="black"/>
</g>
<path d="M137.227 341.522C143.258 343.953 149.452 345.961 155.763 347.53C163.653 349.17 171.353 351.62 178.739 354.843C183.973 356.907 189.089 359.26 194.063 361.89L203.813 395.901C203.813 395.901 187.62 406.086 169.348 405.557C151.077 405.027 134.884 410.942 132.541 409.336C130.198 407.729 129.933 404.82 132.541 403.516C135.148 402.212 146.221 400.644 146.221 400.644L155.668 396.733C155.668 396.733 123.037 399.605 120.429 398.301C117.822 396.997 115.214 395.164 116.254 392.292C116.498 391.5 116.977 390.8 117.629 390.287C118.28 389.774 119.073 389.472 119.9 389.42C119.9 389.42 112.852 389.685 113.117 386.813C113.322 385.597 113.775 384.436 114.448 383.402C115.121 382.368 115.999 381.484 117.028 380.804C118.086 380.275 131.766 374.72 131.766 374.72L149.376 371.206L132.465 370.525L117.69 374.644C117.69 374.644 111.794 375.325 113.117 370.355C114.44 365.386 132.541 359.869 132.541 359.869L155.517 358.3C155.517 358.3 137.756 355.693 135.923 350.213C135.328 348.783 135.135 347.218 135.365 345.686C135.595 344.154 136.239 342.714 137.227 341.522Z" fill="#FFBE9D"/>
<path d="M194.063 361.89H195.197L240.034 359.906L253.45 399.057L203.813 395.826L194.063 361.89Z" fill="#FFBE9D"/>
<path d="M155.026 384.149C153.212 384.427 151.381 384.572 149.546 384.583C146.164 384.772 141.497 385.169 136.32 385.944C131.143 386.718 126.665 387.72 123.377 388.532C121.618 389.062 119.825 389.473 118.011 389.76C119.66 388.937 121.396 388.303 123.188 387.871C131.724 385.371 140.558 384.036 149.452 383.903C151.313 383.78 153.183 383.862 155.026 384.149Z" fill="#EB996E"/>
<path d="M121.374 280.604C120.801 279.942 120.3 279.22 119.881 278.45C118.974 277.052 117.689 274.993 116.102 272.498C111.808 266.003 107.172 259.74 102.214 253.736C97.3192 247.687 91.775 242.193 85.6814 237.354C83.075 235.46 80.3692 233.706 77.5754 232.101C78.4121 232.348 79.2222 232.677 79.994 233.084C80.9254 233.516 81.8279 234.009 82.696 234.557C83.8726 235.233 85.0083 235.978 86.0971 236.787C92.371 241.507 98.0383 246.984 102.97 253.093C107.964 259.128 112.547 265.491 116.688 272.139C118.275 274.671 119.484 276.788 120.297 278.261C120.729 279.007 121.09 279.791 121.374 280.604Z" fill="#263238"/>
<path d="M150.397 345.131C149.987 344.444 149.652 343.715 149.395 342.958L146.939 336.93C144.898 331.829 142.007 324.8 138.663 317.109C135.319 309.419 132.144 302.523 129.801 297.534C128.705 295.191 127.779 293.207 127.061 291.639C126.669 290.936 126.364 290.187 126.155 289.409C126.634 290.055 127.052 290.745 127.402 291.469C128.139 292.811 129.178 294.776 130.425 297.232C132.919 302.145 136.207 309.004 139.57 316.713C142.933 324.422 145.711 331.507 147.6 336.666C148.545 339.254 149.282 341.371 149.754 342.825C150.054 343.567 150.27 344.341 150.397 345.131Z" fill="#263238"/>
<path d="M180.61 232.838C180.61 232.838 180.194 232.706 179.476 232.347L176.396 230.722L165.551 224.732L166.193 224.411C165.664 229.286 164.776 234.973 163.869 241.038C163.51 243.514 163.17 245.913 162.886 248.218L162.773 249.106L162.112 248.54C156.292 243.608 151.266 239.262 147.676 236.126L143.519 232.347C142.992 231.919 142.511 231.437 142.083 230.911C142.681 231.226 143.234 231.62 143.727 232.082L148.092 235.578C151.776 238.582 156.897 242.833 162.716 247.727L161.942 248.029C162.206 245.724 162.527 243.306 162.905 240.83C163.793 234.746 164.795 229.059 165.343 224.222V223.579L165.891 223.901L176.566 230.211L179.514 232.101C179.913 232.292 180.282 232.541 180.61 232.838Z" fill="#263238"/>
<path d="M197.18 205.025C197.301 205.876 197.333 206.737 197.275 207.594C197.275 209.484 197.275 211.77 197.143 214.566C196.992 220.481 196.727 228.624 196.368 237.618C196.368 237.845 196.368 238.053 196.368 238.28V239.848L195.518 238.525L184.748 221.52H185.409C184.219 224.789 183.236 227.528 182.461 229.626C182.151 230.647 181.74 231.634 181.233 232.573C181.416 231.523 181.694 230.493 182.065 229.493L184.691 221.274L184.937 220.518L185.371 221.18L196.349 238.053L195.442 238.299C195.442 238.091 195.442 237.864 195.442 237.656C195.801 228.662 196.179 220.518 196.5 214.623C196.689 211.827 196.821 209.484 196.954 207.651C196.942 206.77 197.018 205.89 197.18 205.025Z" fill="#263238"/>
<path d="M256.473 231.175C255.939 230.973 255.431 230.707 254.961 230.382L255.188 230.23C256.379 234.463 259.742 248.275 263.559 264.676C265.902 274.671 267.942 283.722 269.378 290.297C270.058 293.453 270.606 296.079 271.041 298.082C271.284 299.03 271.442 299.997 271.513 300.973C271.157 300.065 270.873 299.13 270.663 298.177C270.153 296.174 269.511 293.585 268.774 290.449C267.149 283.93 264.995 274.898 262.671 264.903C258.892 248.502 255.755 234.671 254.961 230.287V229.947L255.226 230.136C255.679 230.434 256.098 230.783 256.473 231.175Z" fill="#263238"/>
<path d="M197.181 417.895C196.806 418.048 196.421 418.175 196.028 418.273L192.646 419.18C189.698 419.955 185.39 420.956 180.043 421.939C173.76 423.091 167.412 423.854 161.035 424.225C153.203 424.751 145.336 424.23 137.643 422.675C133.651 421.829 129.784 420.476 126.136 418.651C124.405 417.766 122.739 416.762 121.147 415.647C119.679 414.494 118.302 413.231 117.028 411.868C112.769 407.085 108.818 402.036 105.2 396.752C102.063 392.292 99.6638 388.608 98.0199 386.038L96.1304 383.072C95.9027 382.731 95.7066 382.371 95.5447 381.995C95.8298 382.288 96.0831 382.611 96.3005 382.958C96.8106 383.695 97.4719 384.659 98.3033 385.83C100.042 388.324 102.536 391.952 105.729 396.336C109.407 401.511 113.388 406.464 117.652 411.168C118.886 412.496 120.226 413.722 121.657 414.834C123.207 415.925 124.837 416.898 126.532 417.744C130.126 419.539 133.936 420.86 137.869 421.674C145.475 423.217 153.25 423.763 160.997 423.299C167.329 422.956 173.637 422.262 179.892 421.221C185.239 420.314 189.547 419.426 192.514 418.783L195.933 418.046C196.34 417.938 196.76 417.888 197.181 417.895Z" fill="#263238"/>
<g opacity="0.3">
<path d="M109.848 217.004L114.855 240.793L118.937 238.242L116.594 243.91L167.78 336.741L161.129 315.541L121.28 240.131L127.59 235.086H116.99L109.848 217.004Z" fill="black"/>
</g>
<path d="M217.379 311.328C216.793 312.064 204.663 345.603 204.663 345.603L216.623 338.045C216.623 338.045 221.612 352.632 221.498 352.122C221.385 351.612 230.851 315.73 230.851 315.73L217.379 311.328Z" fill="#263238"/>
<path d="M239.581 316.07C239.581 316.07 248.556 349.968 248.802 349.59C249.047 349.212 253.676 338.498 253.676 338.498L265.259 345.849L253.053 311.328L239.581 316.07Z" fill="#263238"/>
<path d="M234.971 319.925C251.093 319.925 264.163 306.855 264.163 290.732C264.163 274.609 251.093 261.539 234.971 261.539C218.848 261.539 205.778 274.609 205.778 290.732C205.778 306.855 218.848 319.925 234.971 319.925Z" fill="#455A64"/>
<path d="M257.814 289.806C257.642 287.943 257.345 286.094 256.926 284.27C255.604 279.337 252.671 274.987 248.594 271.913C245.599 269.654 242.085 268.184 238.375 267.636C234.664 267.088 230.875 267.48 227.356 268.776C225.32 269.49 223.407 270.516 221.687 271.818C219.871 273.146 218.277 274.753 216.964 276.58C214.137 280.41 212.612 285.046 212.612 289.806C212.612 294.567 214.137 299.202 216.964 303.033C218.267 304.868 219.863 306.476 221.687 307.794C223.407 309.101 225.32 310.134 227.356 310.855C230.878 312.145 234.666 312.533 238.376 311.981C242.086 311.43 245.599 309.958 248.594 307.7C252.681 304.642 255.617 300.295 256.926 295.361C257.344 293.537 257.64 291.688 257.814 289.825C257.869 290.309 257.869 290.797 257.814 291.28C257.82 291.875 257.775 292.469 257.682 293.056C257.604 293.867 257.458 294.669 257.248 295.456C256.042 300.55 253.12 305.074 248.972 308.267C245.895 310.645 242.268 312.208 238.426 312.809C234.584 313.41 230.653 313.031 226.997 311.705C224.88 310.952 222.887 309.889 221.083 308.55C219.189 307.176 217.525 305.512 216.151 303.618C213.193 299.628 211.597 294.792 211.597 289.825C211.597 284.858 213.193 280.022 216.151 276.032C217.539 274.115 219.23 272.436 221.158 271.062C222.953 269.709 224.949 268.644 227.072 267.907C230.987 266.495 235.21 266.162 239.297 266.943C243.64 267.774 247.65 269.84 250.847 272.893C254.044 275.947 256.293 279.857 257.323 284.157C257.534 284.943 257.679 285.746 257.758 286.556C257.85 287.137 257.894 287.725 257.89 288.313C257.92 288.812 257.894 289.313 257.814 289.806Z" fill="#263238"/>
<g opacity="0.2">
<path d="M241.829 262.352L205.778 294.738L208.064 302.069L249.274 265.262C247.07 263.693 244.513 262.694 241.829 262.352Z" fill="white"/>
</g>
<g opacity="0.2">
<path d="M252.543 267.397C252.392 267.283 210.407 306.509 210.407 306.509L212.901 309.835C212.996 309.929 255.131 269.607 255.131 269.607L252.543 267.397Z" fill="white"/>
</g>
<path d="M238.428 280V302.825H233.137V284.289H228.565V280.056L238.428 280Z" fill="white"/>
<g opacity="0.3">
<path d="M215.754 289.806C215.754 277.846 224.219 268.039 234.97 267.038C234.385 267.038 233.78 267.038 233.081 267.038C221.46 267.038 212.051 277.26 212.051 289.882C212.051 302.504 221.498 312.726 233.081 312.726C233.704 312.726 234.309 312.726 234.97 312.631C224.219 311.554 215.754 301.748 215.754 289.806Z" fill="black"/>
</g>
<path d="M104.406 364.479C104.614 364.649 88.648 384.111 68.7327 407.937C48.8175 431.764 32.5111 450.923 32.3033 450.753C32.0954 450.583 48.0616 431.121 67.9769 407.295C87.8922 383.468 104.199 364.309 104.406 364.479Z" fill="white"/>
<path d="M113.022 327.407C113.211 327.577 95.7902 347.474 74.0988 371.829C52.4074 396.185 34.6462 415.798 34.4194 415.609C34.1927 415.42 51.6327 395.542 73.3241 371.187C95.0155 346.831 112.815 327.218 113.022 327.407Z" fill="white"/>
<path d="M48.1183 0.165588L50.7069 34.6678C51.0146 39.1885 52.9161 43.4534 56.0731 46.7038C56.8631 47.5099 57.6957 48.2731 58.5672 48.9901C61.9255 51.7483 66.0454 53.416 70.3766 53.7705L95.5824 55.9057L68.1092 58.6266C66.1179 58.8317 64.2186 59.5692 62.6108 60.7617C61.9872 61.234 61.3826 61.7064 60.7213 62.2166C55.4946 66.7733 52.2426 73.1823 51.6517 80.0912L49.7622 100.517L47.6838 81.6217C47.2756 77.528 45.9276 73.5839 43.7449 70.0967C41.5621 66.6095 38.6035 63.6735 35.0997 61.5175L34.9297 61.4041C33.5265 60.5895 31.9564 60.1049 30.3382 59.987L0.0874023 57.6818L26.3892 55.2443C31.5764 54.8081 36.4205 52.4735 39.9935 48.6878C40.7115 47.9131 41.4106 47.0817 42.072 46.2315C44.3341 43.2115 45.6493 39.5882 45.851 35.8203L48.1183 0.165588Z" fill="white"/>
<g opacity="0.3">
<path d="M180.345 564.236L128.875 624.284H146.731L198.635 564.236H180.345Z" fill="white"/>
</g>
</svg>
